<?xml version="1.0" encoding="UTF-8" standalone="no" ?>
<!DOCTYPE svg PUBLIC "-//W3C//DTD SVG 1.1//EN" "http://www.w3.org/Graphics/SVG/1.1/DTD/svg11.dtd">
<svg xmlns="http://www.w3.org/2000/svg" xmlns:xlink="http://www.w3.org/1999/xlink" version="1.1" width="450" height="150" viewBox="0 0 450 150" xml:space="preserve">
<desc>Created with Fabric.js 5.3.0</desc>
<defs>
</defs>
<g transform="matrix(0.9521808852 0 0 0.9521808852 228 80)" id="uwGaDpxsUZ3jIlKyzLPFP"  >
<g style=""   >
		<g transform="matrix(0.4166666641 0 0 0.4166666667 25.9167983334 27.3474926352)" id="pa1R4TVGmOeqV5ZAaqqqM" clip-path="url(#CLIPPATH_13)"  >
<linearGradient id="SVGID_8" gradientUnits="userSpaceOnUse" gradientTransform="matrix(1 0 0 1 0 0)"  x1="186.408" y1="392.991" x2="1093.56" y2="392.991">
<stop offset="0%" style="stop-color:rgb(49,168,247);stop-opacity: 1"/>
<stop offset="0.518135%" style="stop-color:rgb(49,168,246);stop-opacity: 1"/>
<stop offset="1.03627%" style="stop-color:rgb(49,169,246);stop-opacity: 1"/>
<stop offset="1.5544%" style="stop-color:rgb(49,169,246);stop-opacity: 1"/>
<stop offset="2.07254%" style="stop-color:rgb(49,170,246);stop-opacity: 1"/>
<stop offset="2.5906700000000003%" style="stop-color:rgb(49,171,246);stop-opacity: 1"/>
<stop offset="3.10881%" style="stop-color:rgb(49,171,246);stop-opacity: 1"/>
<stop offset="3.62694%" style="stop-color:rgb(49,172,246);stop-opacity: 1"/>
<stop offset="4.14508%" style="stop-color:rgb(49,173,246);stop-opacity: 1"/>
<stop offset="4.66321%" style="stop-color:rgb(49,173,246);stop-opacity: 1"/>
<stop offset="5.18135%" style="stop-color:rgb(49,174,246);stop-opacity: 1"/>
<stop offset="5.699479999999999%" style="stop-color:rgb(49,175,246);stop-opacity: 1"/>
<stop offset="6.21762%" style="stop-color:rgb(49,175,245);stop-opacity: 1"/>
<stop offset="6.73575%" style="stop-color:rgb(49,176,245);stop-opacity: 1"/>
<stop offset="7.25389%" style="stop-color:rgb(49,177,245);stop-opacity: 1"/>
<stop offset="7.77202%" style="stop-color:rgb(49,177,245);stop-opacity: 1"/>
<stop offset="8.29016%" style="stop-color:rgb(49,178,245);stop-opacity: 1"/>
<stop offset="8.808290000000001%" style="stop-color:rgb(49,178,244);stop-opacity: 1"/>
<stop offset="9.32643%" style="stop-color:rgb(49,179,244);stop-opacity: 1"/>
<stop offset="9.84456%" style="stop-color:rgb(49,180,244);stop-opacity: 1"/>
<stop offset="10.3627%" style="stop-color:rgb(49,180,244);stop-opacity: 1"/>
<stop offset="10.8808%" style="stop-color:rgb(49,181,243);stop-opacity: 1"/>
<stop offset="11.399%" style="stop-color:rgb(49,182,243);stop-opacity: 1"/>
<stop offset="11.9171%" style="stop-color:rgb(49,182,243);stop-opacity: 1"/>
<stop offset="12.4352%" style="stop-color:rgb(49,183,243);stop-opacity: 1"/>
<stop offset="12.9534%" style="stop-color:rgb(49,183,242);stop-opacity: 1"/>
<stop offset="13.4715%" style="stop-color:rgb(49,184,242);stop-opacity: 1"/>
<stop offset="13.9896%" style="stop-color:rgb(49,184,242);stop-opacity: 1"/>
<stop offset="14.507800000000001%" style="stop-color:rgb(50,185,241);stop-opacity: 1"/>
<stop offset="15.0259%" style="stop-color:rgb(50,186,241);stop-opacity: 1"/>
<stop offset="15.543999999999999%" style="stop-color:rgb(50,186,241);stop-opacity: 1"/>
<stop offset="16.062199999999997%" style="stop-color:rgb(50,187,240);stop-opacity: 1"/>
<stop offset="16.5803%" style="stop-color:rgb(50,187,240);stop-opacity: 1"/>
<stop offset="17.098399999999998%" style="stop-color:rgb(50,188,239);stop-opacity: 1"/>
<stop offset="17.6166%" style="stop-color:rgb(50,189,239);stop-opacity: 1"/>
<stop offset="18.134700000000002%" style="stop-color:rgb(50,189,239);stop-opacity: 1"/>
<stop offset="18.6529%" style="stop-color:rgb(50,190,238);stop-opacity: 1"/>
<stop offset="19.171%" style="stop-color:rgb(50,190,238);stop-opacity: 1"/>
<stop offset="19.6891%" style="stop-color:rgb(50,191,237);stop-opacity: 1"/>
<stop offset="20.2073%" style="stop-color:rgb(50,191,237);stop-opacity: 1"/>
<stop offset="20.7254%" style="stop-color:rgb(50,192,236);stop-opacity: 1"/>
<stop offset="21.2435%" style="stop-color:rgb(50,192,236);stop-opacity: 1"/>
<stop offset="21.7617%" style="stop-color:rgb(50,193,235);stop-opacity: 1"/>
<stop offset="22.279799999999998%" style="stop-color:rgb(50,193,235);stop-opacity: 1"/>
<stop offset="22.7979%" style="stop-color:rgb(50,194,234);stop-opacity: 1"/>
<stop offset="23.316100000000002%" style="stop-color:rgb(50,195,234);stop-opacity: 1"/>
<stop offset="23.8342%" style="stop-color:rgb(50,195,233);stop-opacity: 1"/>
<stop offset="24.3523%" style="stop-color:rgb(50,196,233);stop-opacity: 1"/>
<stop offset="24.8705%" style="stop-color:rgb(50,196,232);stop-opacity: 1"/>
<stop offset="25.3886%" style="stop-color:rgb(50,197,232);stop-opacity: 1"/>
<stop offset="25.9067%" style="stop-color:rgb(50,197,231);stop-opacity: 1"/>
<stop offset="26.4249%" style="stop-color:rgb(50,198,231);stop-opacity: 1"/>
<stop offset="26.943%" style="stop-color:rgb(50,198,230);stop-opacity: 1"/>
<stop offset="27.4611%" style="stop-color:rgb(50,199,229);stop-opacity: 1"/>
<stop offset="27.979300000000002%" style="stop-color:rgb(50,199,229);stop-opacity: 1"/>
<stop offset="28.4974%" style="stop-color:rgb(50,200,228);stop-opacity: 1"/>
<stop offset="29.0155%" style="stop-color:rgb(50,200,227);stop-opacity: 1"/>
<stop offset="29.533700000000003%" style="stop-color:rgb(50,201,227);stop-opacity: 1"/>
<stop offset="30.0518%" style="stop-color:rgb(50,201,226);stop-opacity: 1"/>
<stop offset="30.5699%" style="stop-color:rgb(50,202,225);stop-opacity: 1"/>
<stop offset="31.0881%" style="stop-color:rgb(51,202,225);stop-opacity: 1"/>
<stop offset="31.6062%" style="stop-color:rgb(51,203,224);stop-opacity: 1"/>
<stop offset="32.124399999999994%" style="stop-color:rgb(51,203,223);stop-opacity: 1"/>
<stop offset="32.642500000000005%" style="stop-color:rgb(51,204,223);stop-opacity: 1"/>
<stop offset="33.1606%" style="stop-color:rgb(51,204,222);stop-opacity: 1"/>
<stop offset="33.678799999999995%" style="stop-color:rgb(51,205,221);stop-opacity: 1"/>
<stop offset="34.1969%" style="stop-color:rgb(51,205,221);stop-opacity: 1"/>
<stop offset="34.715%" style="stop-color:rgb(51,205,220);stop-opacity: 1"/>
<stop offset="35.2332%" style="stop-color:rgb(51,206,219);stop-opacity: 1"/>
<stop offset="35.7513%" style="stop-color:rgb(51,206,218);stop-opacity: 1"/>
<stop offset="36.269400000000005%" style="stop-color:rgb(51,207,218);stop-opacity: 1"/>
<stop offset="36.7876%" style="stop-color:rgb(51,207,217);stop-opacity: 1"/>
<stop offset="37.3057%" style="stop-color:rgb(51,208,216);stop-opacity: 1"/>
<stop offset="37.8238%" style="stop-color:rgb(51,208,215);stop-opacity: 1"/>
<stop offset="38.342%" style="stop-color:rgb(51,209,214);stop-opacity: 1"/>
<stop offset="38.860099999999996%" style="stop-color:rgb(51,209,214);stop-opacity: 1"/>
<stop offset="39.3782%" style="stop-color:rgb(51,210,213);stop-opacity: 1"/>
<stop offset="39.8964%" style="stop-color:rgb(51,210,212);stop-opacity: 1"/>
<stop offset="40.4145%" style="stop-color:rgb(51,210,211);stop-opacity: 1"/>
<stop offset="40.9326%" style="stop-color:rgb(51,211,210);stop-opacity: 1"/>
<stop offset="41.4508%" style="stop-color:rgb(51,211,209);stop-opacity: 1"/>
<stop offset="41.9689%" style="stop-color:rgb(51,212,208);stop-opacity: 1"/>
<stop offset="42.487%" style="stop-color:rgb(51,212,208);stop-opacity: 1"/>
<stop offset="43.0052%" style="stop-color:rgb(51,212,207);stop-opacity: 1"/>
<stop offset="43.5233%" style="stop-color:rgb(51,213,206);stop-opacity: 1"/>
<stop offset="44.0415%" style="stop-color:rgb(51,213,205);stop-opacity: 1"/>
<stop offset="44.559599999999996%" style="stop-color:rgb(51,214,204);stop-opacity: 1"/>
<stop offset="45.0777%" style="stop-color:rgb(51,214,203);stop-opacity: 1"/>
<stop offset="45.5959%" style="stop-color:rgb(51,214,202);stop-opacity: 1"/>
<stop offset="46.114%" style="stop-color:rgb(51,215,201);stop-opacity: 1"/>
<stop offset="46.6321%" style="stop-color:rgb(51,215,200);stop-opacity: 1"/>
<stop offset="47.1503%" style="stop-color:rgb(51,216,199);stop-opacity: 1"/>
<stop offset="47.6684%" style="stop-color:rgb(51,216,198);stop-opacity: 1"/>
<stop offset="48.186499999999995%" style="stop-color:rgb(51,216,197);stop-opacity: 1"/>
<stop offset="48.7047%" style="stop-color:rgb(51,217,196);stop-opacity: 1"/>
<stop offset="49.2228%" style="stop-color:rgb(51,217,195);stop-opacity: 1"/>
<stop offset="49.740899999999996%" style="stop-color:rgb(51,218,194);stop-opacity: 1"/>
<stop offset="50.259100000000004%" style="stop-color:rgb(51,218,193);stop-opacity: 1"/>
<stop offset="50.7772%" style="stop-color:rgb(51,218,192);stop-opacity: 1"/>
<stop offset="51.2953%" style="stop-color:rgb(51,219,191);stop-opacity: 1"/>
<stop offset="51.813500000000005%" style="stop-color:rgb(51,219,190);stop-opacity: 1"/>
<stop offset="52.3316%" style="stop-color:rgb(52,219,189);stop-opacity: 1"/>
<stop offset="52.8497%" style="stop-color:rgb(52,220,188);stop-opacity: 1"/>
<stop offset="53.3679%" style="stop-color:rgb(52,220,187);stop-opacity: 1"/>
<stop offset="53.886%" style="stop-color:rgb(52,220,186);stop-opacity: 1"/>
<stop offset="54.4041%" style="stop-color:rgb(52,221,185);stop-opacity: 1"/>
<stop offset="54.9223%" style="stop-color:rgb(52,221,183);stop-opacity: 1"/>
<stop offset="55.440400000000004%" style="stop-color:rgb(52,221,182);stop-opacity: 1"/>
<stop offset="55.958600000000004%" style="stop-color:rgb(52,222,181);stop-opacity: 1"/>
<stop offset="56.4767%" style="stop-color:rgb(52,222,180);stop-opacity: 1"/>
<stop offset="56.9948%" style="stop-color:rgb(52,222,179);stop-opacity: 1"/>
<stop offset="57.513000000000005%" style="stop-color:rgb(52,223,178);stop-opacity: 1"/>
<stop offset="58.0311%" style="stop-color:rgb(52,223,177);stop-opacity: 1"/>
<stop offset="58.5492%" style="stop-color:rgb(52,223,175);stop-opacity: 1"/>
<stop offset="59.067400000000006%" style="stop-color:rgb(52,224,174);stop-opacity: 1"/>
<stop offset="59.5855%" style="stop-color:rgb(52,224,173);stop-opacity: 1"/>
<stop offset="60.1036%" style="stop-color:rgb(52,224,172);stop-opacity: 1"/>
<stop offset="60.6218%" style="stop-color:rgb(52,224,171);stop-opacity: 1"/>
<stop offset="61.139900000000004%" style="stop-color:rgb(52,225,169);stop-opacity: 1"/>
<stop offset="61.658%" style="stop-color:rgb(52,225,168);stop-opacity: 1"/>
<stop offset="62.1762%" style="stop-color:rgb(52,225,167);stop-opacity: 1"/>
<stop offset="62.694300000000005%" style="stop-color:rgb(52,226,166);stop-opacity: 1"/>
<stop offset="63.2124%" style="stop-color:rgb(52,226,164);stop-opacity: 1"/>
<stop offset="63.7306%" style="stop-color:rgb(52,226,163);stop-opacity: 1"/>
<stop offset="64.2487%" style="stop-color:rgb(52,226,162);stop-opacity: 1"/>
<stop offset="64.7668%" style="stop-color:rgb(52,227,161);stop-opacity: 1"/>
<stop offset="65.28500000000001%" style="stop-color:rgb(52,227,159);stop-opacity: 1"/>
<stop offset="65.8031%" style="stop-color:rgb(52,227,158);stop-opacity: 1"/>
<stop offset="66.3212%" style="stop-color:rgb(52,228,157);stop-opacity: 1"/>
<stop offset="66.8394%" style="stop-color:rgb(52,228,155);stop-opacity: 1"/>
<stop offset="67.3575%" style="stop-color:rgb(52,228,154);stop-opacity: 1"/>
<stop offset="67.8756%" style="stop-color:rgb(52,228,153);stop-opacity: 1"/>
<stop offset="68.3938%" style="stop-color:rgb(52,229,151);stop-opacity: 1"/>
<stop offset="68.9119%" style="stop-color:rgb(52,229,150);stop-opacity: 1"/>
<stop offset="69.4301%" style="stop-color:rgb(52,229,149);stop-opacity: 1"/>
<stop offset="69.9482%" style="stop-color:rgb(52,229,147);stop-opacity: 1"/>
<stop offset="70.4663%" style="stop-color:rgb(52,229,146);stop-opacity: 1"/>
<stop offset="70.9845%" style="stop-color:rgb(52,230,144);stop-opacity: 1"/>
<stop offset="71.5026%" style="stop-color:rgb(52,230,143);stop-opacity: 1"/>
<stop offset="72.0207%" style="stop-color:rgb(52,230,142);stop-opacity: 1"/>
<stop offset="72.5389%" style="stop-color:rgb(52,230,140);stop-opacity: 1"/>
<stop offset="73.057%" style="stop-color:rgb(52,231,139);stop-opacity: 1"/>
<stop offset="73.5751%" style="stop-color:rgb(52,231,137);stop-opacity: 1"/>
<stop offset="74.0933%" style="stop-color:rgb(52,231,136);stop-opacity: 1"/>
<stop offset="74.6114%" style="stop-color:rgb(52,231,134);stop-opacity: 1"/>
<stop offset="75.12950000000001%" style="stop-color:rgb(52,231,133);stop-opacity: 1"/>
<stop offset="75.6477%" style="stop-color:rgb(52,232,132);stop-opacity: 1"/>
<stop offset="76.16579999999999%" style="stop-color:rgb(52,232,130);stop-opacity: 1"/>
<stop offset="76.68390000000001%" style="stop-color:rgb(52,232,129);stop-opacity: 1"/>
<stop offset="77.2021%" style="stop-color:rgb(52,232,127);stop-opacity: 1"/>
<stop offset="77.72019999999999%" style="stop-color:rgb(52,232,126);stop-opacity: 1"/>
<stop offset="78.23830000000001%" style="stop-color:rgb(52,233,124);stop-opacity: 1"/>
<stop offset="78.7565%" style="stop-color:rgb(52,233,123);stop-opacity: 1"/>
<stop offset="79.27459999999999%" style="stop-color:rgb(52,233,121);stop-opacity: 1"/>
<stop offset="79.79270000000001%" style="stop-color:rgb(52,233,119);stop-opacity: 1"/>
<stop offset="80.31089999999999%" style="stop-color:rgb(52,233,118);stop-opacity: 1"/>
<stop offset="80.829%" style="stop-color:rgb(52,233,116);stop-opacity: 1"/>
<stop offset="81.34710000000001%" style="stop-color:rgb(52,234,115);stop-opacity: 1"/>
<stop offset="81.86529999999999%" style="stop-color:rgb(52,234,113);stop-opacity: 1"/>
<stop offset="82.3834%" style="stop-color:rgb(52,234,112);stop-opacity: 1"/>
<stop offset="82.9016%" style="stop-color:rgb(52,234,110);stop-opacity: 1"/>
<stop offset="83.41969999999999%" style="stop-color:rgb(52,234,108);stop-opacity: 1"/>
<stop offset="83.9378%" style="stop-color:rgb(52,234,107);stop-opacity: 1"/>
<stop offset="84.456%" style="stop-color:rgb(52,234,105);stop-opacity: 1"/>
<stop offset="84.97409999999999%" style="stop-color:rgb(52,235,104);stop-opacity: 1"/>
<stop offset="85.4922%" style="stop-color:rgb(52,235,102);stop-opacity: 1"/>
<stop offset="86.0104%" style="stop-color:rgb(52,235,100);stop-opacity: 1"/>
<stop offset="86.5285%" style="stop-color:rgb(52,235,99);stop-opacity: 1"/>
<stop offset="87.0466%" style="stop-color:rgb(52,235,97);stop-opacity: 1"/>
<stop offset="87.56479999999999%" style="stop-color:rgb(52,235,95);stop-opacity: 1"/>
<stop offset="88.0829%" style="stop-color:rgb(52,235,94);stop-opacity: 1"/>
<stop offset="88.601%" style="stop-color:rgb(52,235,92);stop-opacity: 1"/>
<stop offset="89.11919999999999%" style="stop-color:rgb(52,235,90);stop-opacity: 1"/>
<stop offset="89.6373%" style="stop-color:rgb(52,236,88);stop-opacity: 1"/>
<stop offset="90.1554%" style="stop-color:rgb(52,236,87);stop-opacity: 1"/>
<stop offset="90.6736%" style="stop-color:rgb(52,236,85);stop-opacity: 1"/>
<stop offset="91.1917%" style="stop-color:rgb(52,236,83);stop-opacity: 1"/>
<stop offset="91.7098%" style="stop-color:rgb(52,236,82);stop-opacity: 1"/>
<stop offset="92.228%" style="stop-color:rgb(52,236,80);stop-opacity: 1"/>
<stop offset="92.7461%" style="stop-color:rgb(52,236,78);stop-opacity: 1"/>
<stop offset="93.2642%" style="stop-color:rgb(52,236,76);stop-opacity: 1"/>
<stop offset="93.7824%" style="stop-color:rgb(52,236,74);stop-opacity: 1"/>
<stop offset="94.3005%" style="stop-color:rgb(52,236,73);stop-opacity: 1"/>
<stop offset="94.8187%" style="stop-color:rgb(52,236,71);stop-opacity: 1"/>
<stop offset="95.3368%" style="stop-color:rgb(52,236,69);stop-opacity: 1"/>
<stop offset="95.8549%" style="stop-color:rgb(52,236,67);stop-opacity: 1"/>
<stop offset="96.3731%" style="stop-color:rgb(52,236,65);stop-opacity: 1"/>
<stop offset="96.8912%" style="stop-color:rgb(52,236,64);stop-opacity: 1"/>
<stop offset="97.4093%" style="stop-color:rgb(52,236,62);stop-opacity: 1"/>
<stop offset="97.9275%" style="stop-color:rgb(52,236,60);stop-opacity: 1"/>
<stop offset="98.4456%" style="stop-color:rgb(52,236,58);stop-opacity: 1"/>
<stop offset="98.9637%" style="stop-color:rgb(52,236,56);stop-opacity: 1"/>
<stop offset="99.4819%" style="stop-color:rgb(52,236,54);stop-opacity: 1"/>
<stop offset="100%" style="stop-color:rgb(53,237,53);stop-opacity: 1"/>
</linearGradient>
<clipPath id="CLIPPATH_13" >
	<rect id="clip0" x="-640" y="-360" rx="0" ry="0" width="1280" height="720" />
</clipPath>
<path style="stroke: none; stroke-width: 1; stroke-dasharray: none; stroke-linecap: butt; stroke-dashoffset: 0; stroke-linejoin: miter; stroke-miterlimit: 4; fill: url(#SVGID_8); fill-rule: evenodd; opacity: 1;"  transform=" translate(-639.984, -392.9906223218)" d="M 640.095 343.95 C 631.28 367.768 622.518 391.614 613.786 415.461 C 631.36 415.353 648.936 415.354 666.51 415.463 C 657.743 391.615 648.946 367.769 640.095 343.95 Z M 281.998 373.698 C 273.595 393.784 265.212 413.43 256.561 432.486 C 273.962 430.961 291.379 429.505 308.815 428.178 C 299.899 409.51 291.032 391.305 281.998 373.698 Z M 801.492 335.697 C 801.313 354.701 801.133 373.704 800.953 392.708 C 813.663 393.362 826.364 394.105 839.059 394.911 C 847.235 395.431 853.896 394.761 859.057 392.908 C 864.209 391.059 867.995 388.267 870.424 384.512 C 872.846 380.77 874.087 376.434 874.147 371.491 C 874.208 366.471 873.078 361.675 870.754 357.092 C 868.424 352.496 864.717 348.583 859.614 345.369 C 854.506 342.152 847.864 340.071 839.675 339.234 C 826.96 337.935 814.232 336.75 801.492 335.697 Z M 758.713 303.396 C 785.861 305.357 812.965 307.989 839.984 311.277 C 856.283 313.26 870.201 317.627 881.787 323.99 C 893.358 330.346 902.144 338.043 908.229 347.004 C 914.275 355.907 917.245 365.476 917.114 375.791 C 916.981 386.253 913.774 395.006 907.532 402.165 C 901.235 409.387 892.29 414.761 880.63 418.358 C 868.934 421.966 854.995 423.469 838.751 422.75 C 826.066 422.189 813.378 421.669 800.684 421.214 C 800.485 442.288 800.286 463.363 800.087 484.437 C 785.861 484.418 771.635 484.401 757.409 484.388 C 757.844 424.057 758.278 363.726 758.713 303.396 Z M 619.913 299.23 C 623.466 299.187 627.018 299.155 630.571 299.134 C 636.764 299.099 642.958 299.098 649.151 299.133 C 652.8 299.153 656.448 299.186 660.097 299.23 C 686.144 361.24 711.69 423.166 737.294 484.369 C 722.119 484.357 706.944 484.347 691.769 484.341 C 687.018 471.368 682.26 458.377 677.49 445.372 C 652.61 445.245 627.729 445.244 602.849 445.37 C 598.099 458.376 593.36 471.368 588.627 484.341 C 573.5 484.347 558.373 484.357 543.245 484.369 C 568.672 423.16 594.044 361.238 619.913 299.23 Z M 398.352 316.875 C 408.703 315.354 419.073 313.926 429.452 312.596 C 433.358 312.096 437.264 311.609 441.17 311.137 C 472.148 307.389 503.235 304.504 534.374 302.502 C 534.443 312.287 534.511 322.072 534.58 331.857 C 503.494 333.536 472.453 335.972 441.495 339.117 C 441.673 354.476 441.851 369.835 442.03 385.194 C 469.619 383.269 497.247 381.715 524.903 380.59 C 524.976 390.298 525.05 400.005 525.124 409.712 C 497.512 410.528 469.92 411.66 442.353 413.055 C 442.629 436.867 442.906 460.68 443.182 484.492 C 428.957 484.516 414.732 484.542 400.508 484.57 C 399.789 428.672 399.07 372.774 398.352 316.875 Z M 261.918 342.597 C 265.381 341.8 268.845 341.014 272.31 340.239 C 278.349 338.889 284.403 337.567 290.458 336.28 C 294.024 335.522 297.594 334.774 301.169 334.037 C 328.199 380.451 354.433 430.939 380.395 484.612 C 365.222 484.645 350.051 484.681 334.879 484.719 C 329.969 473.756 325.058 462.922 320.1 452.241 C 295.329 453.301 270.579 454.502 245.846 455.795 C 241.179 465.701 236.511 475.455 231.77 485.02 C 216.649 485.07 201.528 485.122 186.408 485.178 C 212.998 442.419 237.751 394.416 261.918 342.597 Z M 1018.84 340.814 C 1033.89 344.331 1046.95 349.463 1058.12 355.762 C 1069.25 362.035 1077.87 368.867 1084.09 376.159 C 1090.25 383.382 1093.37 390.592 1093.38 397.946 C 1079.48 395.26 1065.57 392.649 1051.63 390.194 C 1051.65 386.258 1050.43 382.561 1047.97 379.09 C 1045.5 375.604 1041.79 372.442 1036.8 369.642 C 1031.8 366.836 1025.52 364.621 1017.93 363.131 C 1010.62 361.695 1004.51 361.32 999.608 362.027 C 994.7 362.736 991.012 364.255 988.538 366.52 C 986.052 368.796 984.805 371.635 984.767 374.988 C 984.738 377.52 985.575 379.947 987.302 382.246 C 989.024 384.539 991.604 386.83 995.078 389.068 C 998.547 391.304 1002.8 393.561 1007.88 395.777 C 1012.95 397.991 1018.8 400.3 1025.47 402.623 C 1036.64 406.459 1046.43 410.399 1054.94 414.273 C 1063.42 418.134 1070.49 422.116 1076.24 426.092 C 1081.95 430.045 1086.24 434.221 1089.18 438.579 C 1090.64 440.746 1091.73 443.01 1092.46 445.358 C 1092.83 447.804 1093.19 450.248 1093.56 452.687 C 1093.56 452.687 1093.56 452.688 1093.56 452.689 C 1093.13 455.203 1092.7 457.724 1092.26 460.247 C 1091.38 462.61 1090.08 464.824 1088.33 466.886 C 1084.81 471.04 1079.76 474.563 1073.14 477.494 C 1066.48 480.441 1058.57 482.753 1049.37 484.375 C 1040.16 486 1029.87 486.874 1018.49 486.874 C 1008.25 486.874 998.154 485.944 988.224 483.967 C 978.286 481.989 969.283 478.915 961.243 474.717 C 953.17 470.504 946.779 465.038 942.036 458.417 C 937.26 451.749 934.967 443.89 935.08 434.944 C 949.333 435.765 963.576 436.662 977.811 437.597 C 977.756 442.29 978.694 446.318 980.654 449.652 C 982.606 452.974 985.382 455.714 989.011 457.829 C 992.632 459.94 996.97 461.544 1002.03 462.622 C 1007.08 463.7 1012.64 464.337 1018.69 464.551 C 1026.07 464.811 1032.15 464.305 1036.94 463.083 C 1041.73 461.864 1045.28 460.104 1047.62 457.811 C 1049.95 455.528 1051.12 452.886 1051.14 449.871 C 1051.15 447.472 1050.62 445.261 1049.55 443.238 C 1048.47 441.209 1046.49 439.238 1043.57 437.342 C 1040.65 435.443 1036.58 433.403 1031.31 431.269 C 1026.04 429.132 1019.23 426.713 1010.85 424.074 C 1001.53 421.081 992.714 417.759 984.393 414.206 C 976.052 410.645 968.739 406.603 962.408 402.179 C 956.053 397.737 951.124 392.716 947.546 387.216 C 943.95 381.688 942.224 375.496 942.309 368.709 C 942.391 362.138 944.34 356.435 948.203 351.681 C 952.037 346.963 957.366 343.281 964.217 340.768 C 971.028 338.27 979.094 336.981 988.374 336.954 C 997.639 336.927 1007.8 338.236 1018.84 340.814 Z" stroke-linecap="round" />
</g>
		<g transform="matrix(0.4166666641 0 0 0.4166666667 -105.9514185575 32.1517475732)" style="" id="0T1VEDnt7UqPlALJpsO1J" clip-path="url(#CLIPPATH_14)"  >
<clipPath id="CLIPPATH_14" >
	<rect id="clip0" x="-640" y="-360" rx="0" ry="0" width="1280" height="720" />
</clipPath>
		<text xml:space="preserve" font-family="Arial,Arial_MSFontService,sans-serif" font-size="187.766" font-style="normal" font-weight="normal" line-height="1" style="stroke: none; stroke-width: 1; stroke-dasharray: none; stroke-linecap: butt; stroke-dashoffset: 0; stroke-linejoin: miter; stroke-miterlimit: 4; fill: rgb(0,0,0); fill-opacity: 0; fill-rule: nonzero; opacity: 1; white-space: pre;" ><tspan x="-323.5002775124" y="58.98481124" >AFAPS</tspan></text>
</g>
		<g transform="matrix(0.3544496082 0 0 0.3544496082 -176.9603076489 -63.1731531258)" id="Lox071_udOZqJbn1BK-J_"  >
<path style="stroke: rgb(34,34,65); stroke-width: 0; stroke-dasharray: none; stroke-linecap: butt; stroke-dashoffset: 0; stroke-linejoin: miter; stroke-miterlimit: 4; fill: rgb(247,47,58); fill-rule: nonzero; opacity: 1;"  transform=" translate(0, 0)" d="M 0 -45.87156 C 25.3211 -45.87156 45.87156 -25.3211 45.87156 0 C 45.87156 25.3211 25.3211 45.87156 0 45.87156 C -25.3211 45.87156 -45.87156 25.3211 -45.87156 0 C -45.87156 -25.3211 -25.3211 -45.87156 0 -45.87156 z" stroke-linecap="round" />
</g>
		<g transform="matrix(0.6503662536 0 0 0.6503662536 -173.9353450779 -0.188705083)" id="g-KYHLUfW_gTIuFJN0EiD"  >
<linearGradient id="SVGID_9" gradientUnits="userSpaceOnUse" gradientTransform="matrix(1 0 0 1 -86.206895 -102.873565)"  x1="0" y1="102.87356500000001" x2="172.41379" y2="102.87356500000001">
<stop offset="0%" style="stop-color:rgb(247,47,58);stop-opacity: 1"/>
<stop offset="50%" style="stop-color:rgb(247,47,58);stop-opacity: 1"/>
<stop offset="100%" style="stop-color:rgb(49,168,247);stop-opacity: 1"/>
</linearGradient>
<path style="stroke: rgb(0,0,0); stroke-width: 0; stroke-dasharray: none; stroke-linecap: butt; stroke-dashoffset: 0; stroke-linejoin: miter; stroke-miterlimit: 4; fill: url(#SVGID_9); fill-rule: nonzero; opacity: 1;"  transform=" translate(-0.000005, 0.000005)" d="M -85.20517 -101.72017 C -41.25328 -51.11353999999999 -14.53416 12.159559999999999 -8.91064 78.95159000000001 L -6.896540000000001 102.87356000000001 L -4.603280000000001 85.28746000000001 L -4.603280000000001 85.28746000000001 C 4.63653 14.431120000000007 36.48302 -51.55562999999998 86.2069 -102.87357 L 86.2069 -102.87357 L -6.896549999999991 -46.94234 L -86.20688999999999 -102.87357 z" stroke-linecap="round" />
</g>
		<g transform="matrix(0.679443179 0 0 0.679443179 43.8977205266 -37.9626741632)" id="zirI4pf1797-8drloFThP"  >
<linearGradient id="SVGID_10" gradientUnits="userSpaceOnUse" gradientTransform="matrix(1 0 0 1 -248.81444 -55.4947017011)"  x1="0" y1="55.49470354922881" x2="497.6288769012552" y2="55.49470354922881">
<stop offset="0%" style="stop-color:rgb(49,168,247);stop-opacity: 1"/>
<stop offset="100%" style="stop-color:rgb(53,237,53);stop-opacity: 1"/>
</linearGradient>
<path style="stroke: rgb(0,0,0); stroke-width: 0; stroke-dasharray: none; stroke-linecap: butt; stroke-dashoffset: 0; stroke-linejoin: miter; stroke-miterlimit: 4; fill: url(#SVGID_10); fill-rule: nonzero; opacity: 1;"  transform=" translate(0.000005, 8.505e-7)" d="M -248.81444 35.73452 L -150.04849 16.759940000000004 L -150.04849 16.759940000000004 C -16.803649999999976 -8.838609999999996 120.98897000000002 4.347860000000004 246.96043 54.75286 L 248.81443000000002 55.4947 L 155.90933 8.829050000000002 L 155.90933 8.829050000000002 C 43.37924000000001 -47.694109999999995 -83.99229 -67.66778 -208.42262 -48.303399999999996 L -212.6303 -47.648579999999995 z" stroke-linecap="round" />
</g>
</g>
</g>
</svg>