<?xml version="1.0" encoding="UTF-8" standalone="no" ?>
<!DOCTYPE svg PUBLIC "-//W3C//DTD SVG 1.1//EN" "http://www.w3.org/Graphics/SVG/1.1/DTD/svg11.dtd">
<svg xmlns="http://www.w3.org/2000/svg" xmlns:xlink="http://www.w3.org/1999/xlink" version="1.1" width="100" height="100" viewBox="0 0 100 100" xml:space="preserve">
<desc>Created with Fabric.js 5.3.0</desc>
<defs>
</defs>
<g transform="matrix(0.2 0 0 0.2 50 50)" id="900tIwAnz7kC8Z1to_fy3"  >
<g style=""   >
		<g transform="matrix(1.1745204651 0 0 1.1745204651 -10.0236438246 -188.2660963631)" id="7OF2JuGZO7H-R9x5OmJp1"  >
<path style="stroke: rgb(34,34,65); stroke-width: 0; stroke-dasharray: none; stroke-linecap: butt; stroke-dashoffset: 0; stroke-linejoin: miter; stroke-miterlimit: 4; fill: rgb(247,47,58); fill-rule: nonzero; opacity: 1;"  transform=" translate(0, 0)" d="M 0 -45.87156 C 25.3211 -45.87156 45.87156 -25.3211 45.87156 0 C 45.87156 25.3211 25.3211 45.87156 0 45.87156 C -25.3211 45.87156 -45.87156 25.3211 -45.87156 0 C -45.87156 -25.3211 -25.3211 -45.87156 0 -45.87156 z" stroke-linecap="round" />
</g>
		<g transform="matrix(2.1550834223 0 0 2.1550834223 0.0000107754 20.4420570531)" id="dtUStejF2cPbArCOJ2gbR"  >
<linearGradient id="SVGID_1" gradientUnits="userSpaceOnUse" gradientTransform="matrix(1 0 0 1 -86.206895 -102.873565)"  x1="0" y1="102.87356500000001" x2="172.41379" y2="102.87356500000001">
<stop offset="0%" style="stop-color:rgb(247,47,58);stop-opacity: 1"/>
<stop offset="50%" style="stop-color:rgb(247,47,58);stop-opacity: 1"/>
<stop offset="100%" style="stop-color:rgb(49,168,247);stop-opacity: 1"/>
</linearGradient>
<path style="stroke: rgb(0,0,0); stroke-width: 0; stroke-dasharray: none; stroke-linecap: butt; stroke-dashoffset: 0; stroke-linejoin: miter; stroke-miterlimit: 4; fill: url(#SVGID_1); fill-rule: nonzero; opacity: 1;"  transform=" translate(-0.000005, 0.000005)" d="M -85.20517 -101.72017 C -41.25328 -51.11353999999999 -14.53416 12.159559999999999 -8.91064 78.95159000000001 L -6.896540000000001 102.87356000000001 L -4.603280000000001 85.28746000000001 L -4.603280000000001 85.28746000000001 C 4.63653 14.431120000000007 36.48302 -51.55562999999998 86.2069 -102.87357 L 86.2069 -102.87357 L -6.896549999999991 -46.94234 L -86.20688999999999 -102.87357 z" stroke-linecap="round" />
</g>
</g>
</g>
</svg>